<?xml version="1.0" encoding="UTF-8"?>
<svg id="Layer_2" xmlns="http://www.w3.org/2000/svg" viewBox="0 0 1838.15 450.36">
  <defs>
    <style>
      .cls-1 {
        fill: #fff;
      }
    </style>
  </defs>
  <g id="Layer_1-2" data-name="Layer_1">
    <g>
      <g>
        <path class="cls-1" d="M710.25,341.17c0,39.79-30.18,59.68-70.62,59.68s-72.52-22.45-77.02-75.73h-94.99c1.8,38.73,14.04,70.6,34.2,94.87,9.95,12.01,21.82,22.17,35.33,30.37h-151.13v-250.92l-90.07,160.83h-90.09l-90.07-160.83v250.92H0V0h122.24l128.66,238.03L379.58,0h159.7c-14.85,8.96-27.55,20.25-37.46,33.69-14.78,20.02-23.3,44.83-23.3,73.83s8.96,54.32,23.3,74.55c20.62,29.08,52.35,49.19,84.53,62.82l39.17,16.67c51.99,22.47,84.73,39.17,84.73,79.61Z"/>
        <path class="cls-1" d="M724.59,110.73v99.26c-13.44-7.48-28.01-14.27-43.23-20.95l-39.79-17.34c-45.59-19.24-68.68-35.29-68.68-69.95,0-32.1,24.39-50.07,59.05-50.07,37.23,0,58.41,21.18,64.83,59.05h27.83Z"/>
      </g>
      <g>
        <path class="cls-1" d="M1020.99,181.23v-112.91l-52.41,81.87-52.41-81.87v112.91h-31.26V12.54h29.46l54.21,85.25,54.21-85.25h29.46v168.69h-31.26Z"/>
        <path class="cls-1" d="M1077.67,181.23L1157.52,4.89l80.07,176.34h-32.84l-15.75-36.21h-64.1l-15.75,36.21h-31.49ZM1177.54,118.7l-20.69-47.01-20.47,47.01h41.16Z"/>
        <path class="cls-1" d="M1340.16,105.21l57.81,76.02h-37.11l-51.51-67.48h-15.29v67.48h-31.26V12.54h44.76c43.41,0,61.41,22.49,61.41,50.61,0,21.14-11.47,34.64-28.79,42.06ZM1294.05,40.66v46.11h13.27c17.77,0,29.02-7.2,29.02-23.62,0-15.52-11.25-22.49-29.02-22.49h-13.27Z"/>
        <path class="cls-1" d="M1417.77,181.23V12.54h31.26v83.9l69.72-83.9h35.31l-70.63,83.67,75.35,85.02h-39.36l-70.4-79.62v79.62h-31.26Z"/>
        <path class="cls-1" d="M1612.1,108.13v44.98h66.58v28.11h-97.84V12.54h97.84v28.11h-66.58v39.36h64.33v28.12h-64.33Z"/>
        <path class="cls-1" d="M1753.81,40.66h-52.86V12.54h137.2v28.11h-53.08v140.58h-31.26V40.66Z"/>
        <path class="cls-1" d="M949.24,307.54c23.62,10.35,42.74,21.59,42.74,49.93,0,33.96-26.76,50.61-58.03,50.61-33.51,0-58.03-18.89-59.6-52.86h33.29c1.57,18.67,12.37,26.54,26.99,26.54s24.74-6.97,24.74-20.92-11.47-20.02-29.69-27.89l-13.72-5.85c-19.12-8.1-37.79-22.72-37.79-48.13,0-29.24,24.74-46.33,55.11-46.33s51.28,19.57,54.66,47.46h-33.29c-2.25-13.27-9.67-20.69-22.72-20.69-12.15,0-20.69,6.3-20.69,17.54,0,12.15,8.1,17.77,24.07,24.52l13.94,6.07Z"/>
        <path class="cls-1" d="M1105.34,232.64c51.96,0,88.62,38.46,88.62,87.72,0,39.14-22.94,71.3-58.48,83,9.22,8.1,23.62,10.57,34.19,10.57,6.07,0,11.02-.68,16.19-1.57v25.42c-6.3,1.13-12.82,1.57-19.34,1.57-26.09,0-51.51-9.45-65.9-31.26-49.48-2.25-84.12-39.81-84.12-87.72s36.66-87.72,88.84-87.72ZM1050.23,320.36c0,34.41,22.27,58.93,54.88,58.93s55.11-24.52,55.11-58.93-22.72-58.93-54.88-58.93-55.11,24.52-55.11,58.93Z"/>
        <path class="cls-1" d="M1331.61,339.03v-102.56h31.26v107.74c0,39.14-27.67,63.88-68.15,63.88s-67.93-24.74-67.93-63.88v-107.74h31.26v102.56c0,24.74,12.82,40.26,36.66,40.26s36.89-15.52,36.89-40.26Z"/>
        <path class="cls-1" d="M1380.42,405.15l79.85-176.34,80.07,176.34h-32.84l-15.75-36.21h-64.1l-15.75,36.21h-31.49ZM1480.29,342.63l-20.69-47.01-20.47,47.01h41.16Z"/>
        <path class="cls-1" d="M1642.92,329.13l57.81,76.02h-37.11l-51.51-67.48h-15.29v67.48h-31.26v-168.69h44.76c43.41,0,61.41,22.49,61.41,50.61,0,21.14-11.47,34.64-28.79,42.06ZM1596.81,264.58v46.11h13.27c17.77,0,29.02-7.2,29.02-23.62,0-15.52-11.25-22.49-29.02-22.49h-13.27Z"/>
        <path class="cls-1" d="M1751.78,332.06v44.98h66.58v28.11h-97.84v-168.69h97.84v28.11h-66.58v39.36h64.33v28.12h-64.33Z"/>
      </g>
    </g>
  </g>
</svg>